<svg id="Calque_1" data-name="Calque 1" xmlns="http://www.w3.org/2000/svg" viewBox="0 0 300 300"><defs><style>.cls-1{fill:#10bb67;}.cls-2{fill:#32d736;}.cls-3{fill:#8b4330;}.cls-4{fill:#763220;}.cls-5{fill:#0ca656;}.cls-6{fill:#b25c4a;}.cls-7{fill:#fea832;}.cls-8{fill:#fe9923;}</style></defs><title>blog-favicon</title><path class="cls-1" d="M262.17,23.17A79.09,79.09,0,0,0,142,32.89a8.79,8.79,0,0,0,2,12.27L237.9,56.23a8.73,8.73,0,0,0,6.21-2.58l18.06-18.06a8.76,8.76,0,0,0,0-12.42Z" transform="translate(0 0)"/><path class="cls-1" d="M162.13,68a14.37,14.37,0,0,1-2.46.35L150,67,54.55,54,36.09,35.51a8.81,8.81,0,0,1,0-12.31,79.17,79.17,0,0,1,112,0A23,23,0,0,1,150,25.31a76.76,76.76,0,0,1,18.11,31.82A8.89,8.89,0,0,1,162.13,68Z" transform="translate(0 0)"/><path class="cls-2" d="M159.67,68.38,150,67V25.31a76.76,76.76,0,0,1,18.11,31.82,8.89,8.89,0,0,1-6,10.9A14.37,14.37,0,0,1,159.67,68.38Z" transform="translate(0 0)"/><path class="cls-3" d="M183.05,91.05a8.21,8.21,0,0,0-6.68-3.16H123.63A8.21,8.21,0,0,0,117,91.05a8,8,0,0,0-1.93,7l8.79,52.73a8.83,8.83,0,0,0,8.61,7.38h35.16a8.83,8.83,0,0,0,8.61-7.38L185,98.09A8,8,0,0,0,183.05,91.05Z" transform="translate(0 0)"/><path class="cls-4" d="M167.58,158.2H150V87.89h26.37a8.21,8.21,0,0,1,6.68,3.16,8,8,0,0,1,1.93,7l-8.79,52.73A8.83,8.83,0,0,1,167.58,158.2Z" transform="translate(0 0)"/><path class="cls-5" d="M291.21,123.05H237.89a8.76,8.76,0,0,1-6.21-2.58l-11.37-11.36L209,120.47a8.79,8.79,0,0,1-6.22,2.58H132.42a8.78,8.78,0,0,1-8.79-8.79c0-45.84,37-79.1,87.89-79.1S300,68.42,300,114.26A8.78,8.78,0,0,1,291.21,123.05Z" transform="translate(0 0)"/><path class="cls-6" d="M183.05,143.79a8.19,8.19,0,0,0-6.68-3.17H123.63a8.19,8.19,0,0,0-6.68,3.17,8,8,0,0,0-1.93,7l8.79,53.32c.7,4.22,4.39,8,8.61,8h35.16c4.22,0,7.91-3.75,8.61-8L185,150.82A8,8,0,0,0,183.05,143.79Z" transform="translate(0 0)"/><path class="cls-3" d="M167.58,212.11H150V140.62h26.37a8.19,8.19,0,0,1,6.68,3.17,8,8,0,0,1,1.93,7l-8.79,53.32C175.49,208.36,171.8,212.11,167.58,212.11Z" transform="translate(0 0)"/><path class="cls-6" d="M79.69,264.84a26.37,26.37,0,1,1,26.36-26.36A26.39,26.39,0,0,1,79.69,264.84Z" transform="translate(0 0)"/><path class="cls-3" d="M183.05,197.11a8.18,8.18,0,0,0-6.68-3.16H123.63a8.18,8.18,0,0,0-6.68,3.16,8,8,0,0,0-1.93,7l8.79,53.32a8.83,8.83,0,0,0,8.61,7.38h35.16a8.83,8.83,0,0,0,8.61-7.38L185,204.14A8,8,0,0,0,183.05,197.11Z" transform="translate(0 0)"/><path class="cls-2" d="M150,56.25c-15.47-13.36-36.91-21.09-61.52-21.09C37.5,35.16,0,68.38,0,114.26a8.71,8.71,0,0,0,8.79,8.79H62.11a8.24,8.24,0,0,0,6.15-2.64l11.43-11.25,11.42,11.25a8.26,8.26,0,0,0,6.16,2.64h70.31a8.71,8.71,0,0,0,8.79-8.79C176.37,90.53,166.52,70.31,150,56.25Z" transform="translate(0 0)"/><path class="cls-4" d="M183.05,197.11a8,8,0,0,1,1.93,7l-8.79,53.32a8.83,8.83,0,0,1-8.61,7.38H150V194h26.37A8.18,8.18,0,0,1,183.05,197.11Z" transform="translate(0 0)"/><path class="cls-1" d="M167.58,123.05H150V56.25c16.52,14.06,26.37,34.28,26.37,58A8.71,8.71,0,0,1,167.58,123.05Z" transform="translate(0 0)"/><path class="cls-7" d="M150,247.27c-51.68,0-150,9.14-150,43.94A8.71,8.71,0,0,0,8.79,300H291.21a8.71,8.71,0,0,0,8.79-8.79C300,256.41,201.68,247.27,150,247.27Z" transform="translate(0 0)"/><path class="cls-8" d="M300,291.21a8.71,8.71,0,0,1-8.79,8.79H150V247.27C201.68,247.27,300,256.41,300,291.21Z" transform="translate(0 0)"/><path class="cls-3" d="M185.16,140.62a26.37,26.37,0,1,1,26.36-26.36A26.39,26.39,0,0,1,185.16,140.62Z" transform="translate(0 0)"/></svg>